PathFileType	4	(X/Y/Z)	/home/nbianco/projects/addbio/data/HamnerRunning2013/Processed/subject19//results/MarkerData/run200.trc
DataRate	CameraRate	NumFrames	NumMarkers	Units	OrigDataRate	OrigDataStartFrame	OrigNumFrames
120.005	120.005	10	42	m	120.005	137	274
Frame#	Time	C7			CLAV			LACR			LASI			LCAL			LFAradius			LFAsuperior			LFAulna			LLEL			LMEL			LMT5			LPSI			LTB1			LTB2			LTB3			LTH1			LTH2			LTH3			LTOE			LUA1			LUA2			LUA3			RACR			RASI			RCAL			RFAradius			RFAsuperior			RFAulna			RLEL			RMEL			RMT5			RPSI			RTB1			RTB2			RTB3			RTH1			RTH2			RTH3			RTOE			RUA1			RUA2			RUA3		
		X1	Y1	Z1	X2	Y2	Z2	X3	Y3	Z3	X4	Y4	Z4	X5	Y5	Z5	X6	Y6	Z6	X7	Y7	Z7	X8	Y8	Z8	X9	Y9	Z9	X10	Y10	Z10	X11	Y11	Z11	X12	Y12	Z12	X13	Y13	Z13	X14	Y14	Z14	X15	Y15	Z15	X16	Y16	Z16	X17	Y17	Z17	X18	Y18	Z18	X19	Y19	Z19	X20	Y20	Z20	X21	Y21	Z21	X22	Y22	Z22	X23	Y23	Z23	X24	Y24	Z24	X25	Y25	Z25	X26	Y26	Z26	X27	Y27	Z27	X28	Y28	Z28	X29	Y29	Z29	X30	Y30	Z30	X31	Y31	Z31	X32	Y32	Z32	X33	Y33	Z33	X34	Y34	Z34	X35	Y35	Z35	X36	Y36	Z36	X37	Y37	Z37	X38	Y38	Z38	X39	Y39	Z39	X40	Y40	Z40	X41	Y41	Z41	X42	Y42	Z42

138	1.30833	1.00837	1.55522	-0.34014	1.1165	1.47026	-0.319165	1.03371	1.52034	-0.513814	1.06801	1.05067	-0.431275	1.08186	0.133993	-0.359869	1.00568	1.15929	-0.546046	0.860327	1.28625	-0.597078	0.952635	1.11838	-0.558901	0.798055	1.33768	-0.585019	0.788509	1.34214	-0.512395	1.27723	0.0556773	-0.405416	0.898601	1.08456	-0.376132	1.21078	0.450403	-0.395413	1.17391	0.350949	-0.441835	1.19869	0.255899	-0.373063	1.03963	0.880023	-0.501117	1.14105	0.80245	-0.481584	1.10208	0.665354	-0.460186	1.28238	0.108122	-0.308184	0.972742	1.47991	-0.562146	0.906663	1.45441	-0.5154	0.9134	1.39186	-0.57602	1.06726	1.52102	-0.155723	1.05614	1.04044	-0.195934	0.561336	0.337822	-0.300712	1.15295	1.12872	-0.135151	1.01515	1.22133	-0.0630813	1.11424	1.0742	-0.124217	0.923617	1.25342	-0.053392	0.896535	1.25096	-0.120892	0.620377	0.136045	-0.243266	0.894331	1.08414	-0.276629	0.889728	0.42196	-0.283508	0.811574	0.423794	-0.223077	0.738386	0.322367	-0.28528	0.987196	0.876416	-0.156597	1.03474	0.72577	-0.205	0.961152	0.6426	-0.213576	0.657259	0.155245	-0.342902	1.03923	1.44529	-0.103786	1.03934	1.35469	-0.108132	0.952558	1.36421	-0.0870026
139	1.31667	1.00916	1.55056	-0.341069	1.11696	1.4649	-0.319507	1.03528	1.51428	-0.51491	1.06819	1.04598	-0.431144	1.07183	0.131201	-0.3578	1.01031	1.15515	-0.545648	0.86376	1.27949	-0.598825	0.957991	1.1132	-0.558492	0.800773	1.33031	-0.587633	0.790337	1.33494	-0.515034	1.26596	0.0483596	-0.400551	0.89865	1.07884	-0.375358	1.20721	0.44446	-0.392251	1.16901	0.345484	-0.438747	1.19152	0.250074	-0.369711	1.04035	0.875935	-0.500839	1.14251	0.798697	-0.480781	1.10315	0.661322	-0.459093	1.27043	0.0995017	-0.3033	0.974933	1.47276	-0.564045	0.908158	1.44767	-0.517984	0.915856	1.38468	-0.577795	1.06754	1.5161	-0.156116	1.05638	1.03633	-0.194718	0.565067	0.345882	-0.29826	1.14591	1.11834	-0.132371	1.01018	1.21636	-0.0631702	1.10522	1.06518	-0.121644	0.919529	1.25082	-0.054372	0.892954	1.24882	-0.122166	0.620515	0.143454	-0.23924	0.89408	1.0783	-0.275788	0.897526	0.418989	-0.281362	0.819154	0.424269	-0.221722	0.742517	0.325067	-0.282928	0.991709	0.871109	-0.156471	1.04177	0.721707	-0.204791	0.970392	0.636833	-0.21307	0.657771	0.161308	-0.339127	1.0386	1.44061	-0.104245	1.03708	1.34987	-0.108876	0.950723	1.3609	-0.0876807
140	1.325	1.00981	1.54521	-0.341922	1.11733	1.45884	-0.319769	1.03676	1.50757	-0.515878	1.06835	1.04023	-0.430791	1.05925	0.1277	-0.356226	1.01521	1.15008	-0.545108	0.867542	1.27165	-0.600666	0.963689	1.10706	-0.558058	0.803787	1.32183	-0.590413	0.792388	1.32662	-0.517844	1.25277	0.0427873	-0.397569	0.898762	1.07249	-0.37473	1.20302	0.437469	-0.389089	1.16328	0.339049	-0.435695	1.18251	0.243301	-0.366536	1.04101	0.871632	-0.500047	1.14413	0.795193	-0.479242	1.10447	0.657055	-0.457854	1.2561	0.0907764	-0.299105	0.977111	1.46487	-0.565829	0.909578	1.43995	-0.520567	0.918485	1.37657	-0.579622	1.06764	1.51036	-0.156472	1.05656	1.03146	-0.193874	0.570251	0.353453	-0.295903	1.13807	1.1069	-0.12934	1.00468	1.21062	-0.0632597	1.09518	1.05527	-0.118928	0.915104	1.2476	-0.055446	0.889012	1.24605	-0.123466	0.621745	0.150511	-0.234783	0.893858	1.07172	-0.275067	0.906148	0.41557	-0.278956	0.827557	0.424308	-0.220222	0.747813	0.327269	-0.280325	0.995872	0.865367	-0.156282	1.04852	0.717086	-0.203871	0.979482	0.630646	-0.212375	0.659307	0.166709	-0.334997	1.03777	1.4351	-0.104663	1.03455	1.34426	-0.109766	0.94865	1.35686	-0.0883485
141	1.33333	1.01025	1.53919	-0.342757	1.11757	1.45216	-0.319942	1.03817	1.50027	-0.516749	1.0686	1.03357	-0.43036	1.04366	0.122847	-0.354891	1.02034	1.14408	-0.544479	0.871681	1.26277	-0.602555	0.969728	1.09994	-0.557636	0.807116	1.31226	-0.593322	0.794713	1.3172	-0.520819	1.23781	0.0398395	-0.396652	0.898903	1.06551	-0.374253	1.1982	0.429486	-0.386002	1.15628	0.331747	-0.432637	1.17105	0.235685	-0.36347	1.04165	0.866782	-0.498633	1.14535	0.791557	-0.476972	1.10567	0.65235	-0.456526	1.2397	0.0837353	-0.296151	0.979261	1.45625	-0.567445	0.910934	1.43131	-0.523132	0.921296	1.36758	-0.58148	1.06748	1.50387	-0.156799	1.05678	1.02592	-0.193392	0.576829	0.36043	-0.293737	1.1294	1.09451	-0.126129	0.998681	1.20409	-0.0633599	1.08418	1.04465	-0.116093	0.910353	1.24377	-0.056643	0.884703	1.24259	-0.124806	0.624125	0.15724	-0.229896	0.893719	1.0645	-0.274566	0.915522	0.411735	-0.276408	0.836744	0.423857	-0.218537	0.754192	0.32894	-0.277477	0.999567	0.859076	-0.155975	1.05502	0.711889	-0.202249	0.988402	0.624013	-0.211511	0.661942	0.171407	-0.330479	1.03666	1.42884	-0.105046	1.03167	1.33785	-0.111025	0.9463	1.35204	-0.0891571
142	1.34167	1.01045	1.53253	-0.343626	1.11772	1.44495	-0.320023	1.03953	1.49248	-0.517577	1.0689	1.0262	-0.430044	1.02533	0.116431	-0.35359	1.0257	1.1372	-0.543764	0.876197	1.25293	-0.604461	0.976116	1.09191	-0.557223	0.81081	1.30169	-0.596328	0.797355	1.30672	-0.523957	1.22149	0.0392737	-0.397102	0.899025	1.0579	-0.373945	1.19261	0.420602	-0.382927	1.14756	0.323957	-0.429612	1.15706	0.227558	-0.36046	1.04223	0.860895	-0.4968	1.14588	0.787111	-0.47427	1.10642	0.646837	-0.455315	1.22188	0.0793823	-0.294519	0.981378	1.44698	-0.568873	0.912241	1.4219	-0.525718	0.924301	1.35776	-0.583318	1.067	1.49673	-0.157003	1.05705	1.01987	-0.193267	0.584741	0.366705	-0.291825	1.1199	1.08129	-0.122787	0.992225	1.19679	-0.0634501	1.07225	1.03349	-0.113166	0.905302	1.23935	-0.0579982	0.880078	1.23845	-0.126245	0.627771	0.163631	-0.224619	0.893646	1.05677	-0.27443	0.925602	0.407592	-0.273673	0.846687	0.422919	-0.216604	0.761597	0.330089	-0.27442	1.00271	0.852221	-0.155528	1.06132	0.706172	-0.200011	0.9972	0.616955	-0.210516	0.665824	0.17537	-0.325558	1.03522	1.42187	-0.105385	1.02838	1.33064	-0.112834	0.943645	1.34648	-0.0901434
143	1.35	1.01041	1.52535	-0.344548	1.11782	1.43735	-0.319986	1.04087	1.48433	-0.518411	1.06916	1.01832	-0.430002	1.00537	0.10902	-0.352151	1.03133	1.12949	-0.542917	0.881119	1.24221	-0.606361	0.982879	1.08303	-0.556759	0.814937	1.29019	-0.599391	0.800332	1.29525	-0.527221	1.20436	0.0400737	-0.397863	0.899067	1.0497	-0.373862	1.18601	0.411016	-0.379734	1.13706	0.316183	-0.426695	1.14128	0.21944	-0.357467	1.04269	0.853647	-0.495021	1.14575	0.781031	-0.47165	1.10641	0.640067	-0.454376	1.2035	0.0773735	-0.293754	0.983469	1.43715	-0.570151	0.913529	1.41181	-0.528366	0.927519	1.34714	-0.585077	1.06618	1.48916	-0.156969	1.05725	1.01342	-0.193519	0.593893	0.372168	-0.290191	1.10957	1.06737	-0.119323	0.985373	1.18878	-0.0634776	1.05944	1.02193	-0.110194	0.900001	1.23439	-0.0595537	0.875225	1.23367	-0.127835	0.632859	0.169632	-0.219021	0.893476	1.04851	-0.274708	0.936356	0.403277	-0.270633	0.857361	0.421559	-0.214333	0.770003	0.33077	-0.271226	1.00525	0.844926	-0.154975	1.0675	0.700094	-0.19731	1.00598	0.609558	-0.209425	0.671119	0.178596	-0.320265	1.03339	1.41426	-0.10567	1.02464	1.32278	-0.11507	0.940654	1.34027	-0.0912461
144	1.35833	1.01017	1.51784	-0.345494	1.11792	1.42955	-0.319784	1.04215	1.47599	-0.519289	1.06925	1.0101	-0.430316	0.985263	0.101772	-0.350402	1.03734	1.12106	-0.541885	0.886474	1.23071	-0.608215	0.990063	1.07346	-0.556142	0.819564	1.27788	-0.602457	0.803628	1.28296	-0.53052	1.18699	0.0411842	-0.398157	0.898949	1.04107	-0.37407	1.17825	0.401102	-0.376319	1.12534	0.308778	-0.423849	1.12495	0.211835	-0.354414	1.04302	0.845169	-0.49376	1.14513	0.77271	-0.469662	1.10534	0.631752	-0.453564	1.18535	0.076478	-0.293142	0.985557	1.42685	-0.571346	0.914855	1.40109	-0.531089	0.930988	1.33578	-0.586701	1.06495	1.48138	-0.156668	1.05722	1.00665	-0.19412	0.604135	0.376705	-0.288821	1.09845	1.05293	-0.115721	0.978179	1.18017	-0.063389	1.0458	1.01008	-0.107255	0.894525	1.229	-0.0613563	0.870217	1.22841	-0.129558	0.639592	0.17515	-0.213186	0.892953	1.03972	-0.275293	0.947741	0.398929	-0.267233	0.868737	0.419896	-0.21164	0.779411	0.331057	-0.267995	1.00722	0.837399	-0.154402	1.07367	0.693898	-0.194316	1.01487	0.601985	-0.208219	0.67796	0.181117	-0.314689	1.03114	1.40609	-0.105905	1.02055	1.31457	-0.117214	0.937283	1.33356	-0.0924121
145	1.36667	1.00985	1.51028	-0.346407	1.11806	1.42177	-0.319369	1.04335	1.46767	-0.520239	1.06906	1.00184	-0.430964	0.966096	0.0958515	-0.348253	1.04385	1.11208	-0.540644	0.892319	1.21852	-0.609948	0.997737	1.06335	-0.555281	0.824746	1.2649	-0.605466	0.807231	1.27001	-0.533744	1.1697	0.0420273	-0.397762	0.89858	1.03239	-0.374577	1.16953	0.391379	-0.372696	1.11328	0.301779	-0.420897	1.1091	0.205036	-0.351194	1.04314	0.836133	-0.493213	1.14394	0.762231	-0.468698	1.10287	0.622078	-0.452383	1.16785	0.0755779	-0.292126	0.987705	1.41608	-0.572498	0.916289	1.38974	-0.533876	0.934777	1.32377	-0.588136	1.06324	1.47362	-0.156206	1.05683	0.99955	-0.194924	0.615268	0.38019	-0.287672	1.08657	1.03816	-0.111983	0.970665	1.17108	-0.0631716	1.03141	0.998064	-0.104424	0.88897	1.22328	-0.0634496	0.865077	1.22282	-0.131326	0.648133	0.180057	-0.207213	0.891919	1.03057	-0.275995	0.959705	0.394718	-0.263546	0.880758	0.418073	-0.208524	0.789821	0.331017	-0.264807	1.00875	0.829814	-0.153895	1.07992	0.687881	-0.191189	1.02405	0.594491	-0.206779	0.686425	0.182961	-0.308961	1.02847	1.39758	-0.10612	1.0163	1.30646	-0.118626	0.933517	1.32648	-0.0936749
146	1.375	1.00954	1.50295	-0.347248	1.11824	1.41425	-0.318729	1.04443	1.45958	-0.521271	1.06851	0.994081	-0.431782	0.948163	0.0918968	-0.345854	1.05097	1.10273	-0.539164	0.898782	1.20581	-0.611443	1.006	1.05291	-0.554123	0.830539	1.25138	-0.608368	0.811191	1.25656	-0.536835	1.15258	0.0425209	-0.396906	0.897872	1.02422	-0.375251	1.16035	0.382385	-0.369056	1.10157	0.295097	-0.417746	1.09409	0.199118	-0.347831	1.0428	0.827549	-0.493261	1.14173	0.750637	-0.468858	1.09876	0.611883	-0.450304	1.15097	0.0743121	-0.290614	0.99002	1.40484	-0.573576	0.917906	1.37783	-0.536733	0.938992	1.31129	-0.589347	1.061	1.46613	-0.15575	1.05606	0.992142	-0.19567	0.627093	0.382493	-0.286674	1.07394	1.02322	-0.108149	0.962826	1.16166	-0.0628782	1.01634	0.986023	-0.101737	0.883453	1.21736	-0.0658631	0.859838	1.21701	-0.133083	0.658526	0.184183	-0.201235	0.890495	1.02155	-0.276687	0.972199	0.390917	-0.259726	0.893339	0.416228	-0.205107	0.801212	0.330683	-0.261691	1.01004	0.822245	-0.153481	1.0864	0.682362	-0.188063	1.03369	0.587437	-0.204885	0.696543	0.184117	-0.303224	1.02539	1.38909	-0.106373	1.01206	1.29888	-0.119017	0.929414	1.31921	-0.0951267
147	1.38333	1.00933	1.49611	-0.348031	1.11841	1.40724	-0.31791	1.04539	1.45188	-0.522377	1.06757	0.987412	-0.432471	0.931129	0.0898801	-0.343628	1.05879	1.09325	-0.537347	0.906085	1.19281	-0.612552	1.01496	1.04236	-0.552645	0.83702	1.2375	-0.611146	0.815656	1.24265	-0.539828	1.13559	0.0427863	-0.395996	0.896776	1.0172	-0.375817	1.15136	0.374519	-0.365816	1.09037	0.288862	-0.414687	1.07971	0.19411	-0.344663	1.04158	0.820321	-0.493644	1.13797	0.739672	-0.469918	1.09314	0.602468	-0.447309	1.13439	0.0729585	-0.288985	0.992631	1.39327	-0.574481	0.91979	1.36553	-0.539668	0.943748	1.29866	-0.590328	1.05823	1.45916	-0.155433	1.05496	0.984544	-0.196079	0.639463	0.383498	-0.285741	1.06055	1.00834	-0.104283	0.95469	1.15211	-0.0626238	1.00066	0.974165	-0.099185	0.878097	1.21138	-0.0686036	0.854725	1.21105	-0.134918	0.670672	0.18732	-0.195409	0.889058	1.01339	-0.277343	0.985195	0.387908	-0.255935	0.906377	0.41449	-0.201595	0.813519	0.33006	-0.258617	1.01137	0.814782	-0.153087	1.0932	0.677663	-0.185056	1.04388	0.58126	-0.202325	0.70831	0.184523	-0.297603	1.02194	1.38114	-0.106738	1.0079	1.29212	-0.118699	0.925126	1.312	-0.0968335
